<svg xmlns="http://www.w3.org/2000/svg" xmlns:svg="http://www.w3.org/2000/svg" id="svg3013" width="100%" height="100%" version="1.1" viewBox="0 -256 1850 1850"><metadata id="metadata3023"/><g id="g3015" transform="matrix(1,0,0,-1,45.559322,1335.8305)"><path id="path3017" d="m 1747,1395 q 19,19 32,13 13,-6 13,-32 V -96 q 0,-26 -13,-32 -13,-6 -32,13 l -710,710 q -9,9 -13,19 V -96 q 0,-26 -13,-32 -13,-6 -32,13 L 269,595 q -9,9 -13,19 V -64 q 0,-26 -19,-45 -19,-19 -45,-19 H 64 q -26,0 -45,19 -19,19 -19,45 v 1408 q 0,26 19,45 19,19 45,19 h 128 q 26,0 45,-19 19,-19 19,-45 V 666 q 4,11 13,19 l 710,710 q 19,19 32,13 13,-6 13,-32 V 666 q 4,11 13,19 z" style="fill:currentColor"/></g></svg>