<svg xmlns="http://www.w3.org/2000/svg" xmlns:svg="http://www.w3.org/2000/svg" id="svg3025" width="100%" height="100%" version="1.1" viewBox="0 -256 1850 1850"><metadata id="metadata3035"/><g id="g3027" transform="matrix(1,0,0,-1,37.966102,1320.6441)"><path id="path3029" d="m 45,-115 q -19,-19 -32,-13 -13,6 -13,32 v 1472 q 0,26 13,32 13,6 32,-13 L 755,685 q 8,-8 13,-19 v 710 q 0,26 13,32 13,6 32,-13 l 710,-710 q 8,-8 13,-19 v 678 q 0,26 19,45 19,19 45,19 h 128 q 26,0 45,-19 19,-19 19,-45 V -64 q 0,-26 -19,-45 -19,-19 -45,-19 h -128 q -26,0 -45,19 -19,19 -19,45 v 678 q -5,-10 -13,-19 L 813,-115 q -19,-19 -32,-13 -13,6 -13,32 v 710 q -5,-10 -13,-19 z" style="fill:currentColor"/></g></svg>